<?xml version="1.0" standalone="no"?><!DOCTYPE svg PUBLIC "-//W3C//DTD SVG 1.1//EN" "http://www.w3.org/Graphics/SVG/1.1/DTD/svg11.dtd"><svg t="1674710977078" class="icon" viewBox="0 0 1024 1024" version="1.1" xmlns="http://www.w3.org/2000/svg" p-id="39463" xmlns:xlink="http://www.w3.org/1999/xlink" width="200" height="200"><path d="M659.72 64.19H270.4c-78.06 0-141.33 63.28-141.33 141.33v612.95c0 78.06 63.28 141.33 141.33 141.33h485.49c78.06 0 141.33-63.28 141.33-141.33V301.69c0-31.83-12.64-62.35-35.15-84.85l-117.5-117.5a120.017 120.017 0 0 0-84.85-35.15z" fill="#53B7F4" p-id="39464"></path><path d="M862.07 216.84l-117.5-117.5a120.001 120.001 0 0 0-61.75-32.9v131.88c0 41.87 33.94 75.81 75.81 75.81H894a119.975 119.975 0 0 0-31.93-57.29zM529.42 366.1l-51.53 51.53c-7.81 7.81-7.81 20.47 0 28.28 7.81 7.81 20.47 7.81 28.28 0l51.53-51.53c26.21-26.21 68.85-26.21 95.06 0s26.21 68.85 0 95.06l-51.53 51.53c-26.21 26.21-68.85 26.21-95.06 0a67.079 67.079 0 0 1-7.88-9.48c-6.24-9.11-18.69-11.44-27.8-5.19-9.12 6.25-11.44 18.69-5.19 27.8 3.7 5.4 7.94 10.5 12.59 15.15 41.8 41.8 109.82 41.8 151.63 0l51.53-51.53c41.8-41.8 41.8-109.82 0-151.63-41.81-41.8-109.83-41.8-151.63 0.01z" fill="#29A3D3" p-id="39465"></path><path d="M520.11 622.09l-51.53 51.53c-26.21 26.21-68.85 26.21-95.06 0-26.21-26.21-26.21-68.85 0-95.06l51.53-51.53c26.21-26.21 68.85-26.21 95.06 0 2.76 2.76 5.28 5.77 7.5 8.94 6.33 9.05 18.8 11.25 27.85 4.92s11.25-18.8 4.92-27.85c-3.55-5.08-7.59-9.88-11.99-14.28-41.8-41.8-109.82-41.8-151.63 0l-51.53 51.53c-41.8 41.8-41.8 109.82 0 151.62 41.8 41.8 109.82 41.8 151.63 0l51.53-51.53c7.81-7.81 7.81-20.47 0-28.28-7.81-7.82-20.47-7.82-28.28-0.01z" fill="#29A3D3" p-id="39466"></path><path d="M681.04 354.1c-41.8-41.8-109.82-41.8-151.63 0l-51.53 51.53c-7.81 7.81-7.81 20.47 0 28.28 7.81 7.81 20.47 7.81 28.28 0l51.53-51.53c26.21-26.21 68.85-26.21 95.06 0s26.21 68.85 0 95.06l-51.53 51.53c-26.21 26.21-68.85 26.21-95.06 0a67.079 67.079 0 0 1-7.88-9.48c-6.24-9.11-18.69-11.44-27.8-5.19-9.12 6.25-11.44 18.69-5.19 27.8 3.7 5.4 7.94 10.5 12.59 15.15 41.8 41.8 109.82 41.8 151.63 0l51.53-51.53c41.81-41.8 41.81-109.82 0-151.62z" fill="#FFFFFF" p-id="39467"></path><path d="M520.11 610.09l-51.53 51.53c-26.21 26.21-68.85 26.21-95.06 0-26.21-26.21-26.21-68.85 0-95.06l51.53-51.53c26.21-26.21 68.85-26.21 95.06 0 2.76 2.76 5.28 5.77 7.5 8.94 6.33 9.05 18.8 11.25 27.85 4.92s11.25-18.8 4.92-27.85c-3.55-5.08-7.59-9.88-11.99-14.28-41.8-41.8-109.82-41.8-151.63 0l-51.53 51.53c-41.8 41.8-41.8 109.82 0 151.62 41.8 41.8 109.82 41.8 151.63 0l51.53-51.53c7.81-7.81 7.81-20.47 0-28.28-7.81-7.82-20.47-7.82-28.28-0.01z" fill="#FFFFFF" p-id="39468"></path></svg>